HIERARCHY
ROOT Hips
{
  OFFSET 226.904 98.5744 228.996
  CHANNELS 6 Xposition Yposition Zposition Zrotation Xrotation Yrotation
  JOINT ToSpine
  {
    OFFSET -0.0105055 1.38907 -7.13956
    CHANNELS 3 Zrotation Xrotation Yrotation
    JOINT Spine
    {
      OFFSET 0.0105055 10 1
      CHANNELS 3 Zrotation Xrotation Yrotation
      JOINT Spine1
      {
        OFFSET 0 12 1.60637
        CHANNELS 3 Zrotation Xrotation Yrotation
        JOINT Neck
        {
          OFFSET 0 27 2.26658
          CHANNELS 3 Zrotation Xrotation Yrotation
          JOINT Head
          {
            OFFSET 0 9 2.12705
            CHANNELS 3 Zrotation Xrotation Yrotation
            End Site
            {
              OFFSET 0 11 2
            }
          }
        }
        JOINT LeftShoulder
        {
          OFFSET 8 19.6109 2.86452
          CHANNELS 3 Zrotation Xrotation Yrotation
          JOINT LeftArm
          {
            OFFSET 12 1 0.681055
            CHANNELS 3 Zrotation Xrotation Yrotation
            JOINT LeftForeArm
            {
              OFFSET 19 0 -1.52608
              CHANNELS 3 Zrotation Xrotation Yrotation
              JOINT LeftHand
              {
                OFFSET 23 0 0
                CHANNELS 3 Zrotation Xrotation Yrotation
                End Site
                {
                  OFFSET 10 0 0
                }
              }
            }
          }
        }
        JOINT RightShoulder
        {
          OFFSET -8 19.6109 2.86452
          CHANNELS 3 Zrotation Xrotation Yrotation
          JOINT RightArm
          {
            OFFSET -12 1 0.681055
            CHANNELS 3 Zrotation Xrotation Yrotation
            JOINT RightForeArm
            {
              OFFSET -19 0 -1.52608
              CHANNELS 3 Zrotation Xrotation Yrotation
              JOINT RightHand
              {
                OFFSET -23 0 0
                CHANNELS 3 Zrotation Xrotation Yrotation
                End Site
                {
                  OFFSET -10 0 0
                }
              }
            }
          }
        }
      }
    }
  }
  JOINT LeftUpLeg
  {
    OFFSET 9 -7.17245 0
    CHANNELS 3 Zrotation Xrotation Yrotation
    JOINT LeftLeg
    {
      OFFSET 0 -44.1113 0
      CHANNELS 3 Zrotation Xrotation Yrotation
      JOINT LeftFoot
      {
        OFFSET 0 -36.1829 0
        CHANNELS 3 Zrotation Xrotation Yrotation
        JOINT LeftToeBase
        {
          OFFSET 0 -4.84184 13
          CHANNELS 3 Zrotation Xrotation Yrotation
          End Site
          {
            OFFSET 0 1 6
          }
        }
      }
    }
  }
  JOINT RightUpLeg
  {
    OFFSET -9 -7.17245 0
    CHANNELS 3 Zrotation Xrotation Yrotation
    JOINT RightLeg
    {
      OFFSET 0 -44.0551 0
      CHANNELS 3 Zrotation Xrotation Yrotation
      JOINT RightFoot
      {
        OFFSET 0 -36.1469 0
        CHANNELS 3 Zrotation Xrotation Yrotation
        JOINT RightToeBase
        {
          OFFSET 0 -4.92256 13
          CHANNELS 3 Zrotation Xrotation Yrotation
          End Site
          {
            OFFSET 0 1 6
          }
        }
      }
    }
  }
}
MOTION
Frames:	19
Frame Time:	0.0333333
226.904 98.5744 228.996 -2.1339 -3.50531 -28.866 0 0 0 2.56734 -1.83192 0.389371 -5.45883 11.8828 1.39596 11.5991 1.78844 -0.652473 -6.03579 -0.247901 4.31207 -33.136 3.92643 -6.4955 -39.3845 20.1246 -14.4524 -4.55245 -14.6338 -4.03285 -8.93315 0.158855 -2.03339 28.39 6.75184 15.9132 50.1879 10.0478 0.840325 2.67911 -5.96209 15.2301 1.2314 0.0525946 4.89118 1.50128 2.12729 6.52888 -1.169 10.0933 -15.0293 13.7056 0.743264 -0.0893247 1.27044 -20.286 1.85 -4.39612 6.21379 -7.69482 -0.894872 6.25025 5.65346 -13.3783 -1.65512 -0.194128 3.25424 -11.5381 -7.34801 
226.942 98.5345 229.153 -2.2174 -3.69524 -29.1919 0 0 0 2.85067 -1.55368 0.50759 -5.50882 11.8084 1.53486 11.4329 1.75942 -0.81553 -5.9351 -0.352388 4.06957 -33.3504 3.97007 -6.55101 -39.4936 19.3994 -14.6386 -4.33822 -13.6784 -3.45518 -8.9696 0.148514 -1.8933 27.8188 6.79579 16.3518 51.0175 8.9427 0.353873 2.43988 -5.67422 15.487 1.04615 0.0453328 4.96236 1.11768 2.58505 6.12981 -0.798951 9.75163 -15.0923 13.0436 1.47866 -0.169051 1.14918 -21.1612 5.53544 -4.46542 6.31013 -7.6315 -1.04287 6.50056 5.79665 -13.6653 -1.7903 -0.214533 3.29041 -11.7237 -7.26282 
226.916 98.5364 229.242 -2.26678 -3.87471 -29.1864 0 0 0 2.47971 -1.19652 0.303935 -5.11123 11.5636 1.24682 11.758 2.14776 -0.633211 -6.16399 -0.586053 4.42941 -33.1642 3.92797 -6.49222 -39.5378 19.6122 -14.3868 -4.26902 -13.2473 -3.83022 -9.44659 0.120022 -1.45254 28.0113 6.95466 16.6983 50.8268 9.05471 0.098009 2.46509 -5.72023 15.5411 0.916644 0.0396588 4.95463 1.28597 2.73054 6.45782 -1.23859 10.1051 -15.3242 13.8139 1.17552 -0.142403 1.2408 -21.2487 4.03263 -4.61979 6.2549 -7.82172 -0.982051 7.20342 5.84045 -13.5231 -2.2141 -0.262542 3.28153 -11.718 -6.88331 
226.882 98.5042 229.254 -2.28597 -3.78049 -29.1767 0 0 0 2.44976 -0.955494 0.369902 -4.74887 11.366 1.19757 11.3252 2.00298 -0.754714 -5.97187 -0.400352 4.12487 -33.4417 3.97204 -6.53265 -39.3148 19.7519 -14.5535 -4.4443 -14.1885 -3.8127 -9.40206 0.12638 -1.53676 27.4711 6.6333 16.0765 51.1264 9.53373 0.298553 2.56808 -5.87673 15.5645 0.779195 0.0320879 4.71624 1.46861 2.14727 6.53862 -1.27335 11.2676 -14.9593 13.7971 0.224127 -0.0271166 1.22663 -21.1261 4.04212 -4.63861 5.9062 -7.82024 -0.796835 7.90013 5.91182 -13.9845 -2.43795 -0.299052 3.32901 -11.9048 -7.34109 
226.9 98.4394 229.256 -2.28459 -3.95279 -29.2891 0 0 0 2.40681 -0.526116 0.312345 -4.62735 11.4477 1.09388 11.1049 1.66275 -0.53234 -5.97548 -0.63536 4.23308 -33.75 3.9491 -6.39727 -38.5969 20.7773 -14.8213 -4.75059 -15.6665 -4.46644 -9.21678 0.0904088 -1.12159 27.3675 6.60103 16.0403 50.9944 9.31917 0.485639 2.44023 -5.55477 15.566 1.1632 0.0472803 4.65506 1.57414 1.72616 6.77686 -1.56756 12.636 -15.0305 14.2966 -0.709974 0.0890406 1.23026 -20.1142 2.23593 -4.82163 5.54292 -7.78343 -0.746056 9.0172 5.87478 -14.6047 -2.84379 -0.364491 3.43473 -12.4222 -7.32623 
226.996 98.3405 229.246 -2.29534 -4.20216 -29.4468 0 0 0 3.11729 0.115345 0.297491 -5.56448 11.1491 1.3361 11.6689 2.20519 -0.690916 -6.13492 -1.3239 4.30972 -33.3258 4.0285 -6.70473 -38.7186 20.7149 -14.9444 -4.70452 -15.2245 -4.01666 -9.33637 0.127237 -1.55811 27.9571 6.79638 16.2766 50.4766 9.21369 -0.0084636 2.37068 -5.60013 15.967 1.89379 0.0728648 4.4064 1.31291 1.59914 6.56101 -1.48062 13.3557 -14.9852 14.4873 -0.244215 0.0310406 1.27282 -21.6409 4.26758 -5.13569 4.85851 -7.83694 -0.786401 10.947 6.0663 -14.8385 -3.81688 -0.497213 3.40881 -12.3081 -7.15567 
226.901 98.229 229.202 -2.32536 -4.51792 -29.7042 0 0 0 2.67322 0.537694 0.435334 -4.919 11.333 1.30851 11.3403 2.00444 -0.709251 -6.31195 -1.14496 4.21421 -33.5508 4.05058 -6.70193 -38.3345 21.218 -15.367 -4.87734 -15.576 -4.11745 -9.12763 0.11722 -1.46843 27.6417 6.75184 16.3244 50.5572 8.50374 -0.32719 2.29655 -5.72783 16.4256 1.10166 0.045224 4.70127 1.4116 1.26897 6.75146 -1.58213 14.8604 -14.6044 14.518 -1.47229 0.187544 1.16842 -20.6714 4.17234 -5.21245 4.38378 -7.52069 -0.957644 12.6105 6.14883 -15.4694 -4.43614 -0.602822 3.53061 -12.8582 -7.9851 
227.076 97.9895 229.145 -1.80602 -4.58848 -30.3479 0 0 0 2.91284 0.996185 0.464579 -5.64902 10.8027 1.51512 11.3275 2.3861 -0.728235 -6.66231 -1.34619 4.29272 -33.3798 4.04075 -6.72158 -38.8317 20.6495 -15.0379 -4.71833 -15.2091 -4.44508 -9.12286 0.117698 -1.47519 27.1687 6.65276 16.3026 50.6942 8.65889 -0.212094 2.35569 -5.76286 16.1342 1.23691 0.0528244 4.89066 0.763774 0.317251 6.52238 -1.73797 16.4774 -13.8622 14.8826 -2.07521 0.271073 1.15366 -21.3157 5.81646 -6.29344 2.50773 -7.75855 -0.42974 15.824 6.70988 -17.4387 -5.24816 -0.805446 3.74275 -13.9208 -8.53746 
226.911 97.8806 229.03 -1.94294 -4.97391 -30.1533 0 0 0 2.71025 1.68293 0.294342 -5.42075 11.0166 1.29611 10.7138 1.73054 -0.504469 -5.41397 -1.0148 4.00666 -33.3349 3.98748 -6.59891 -38.5332 20.639 -15.4024 -4.67803 -14.8655 -4.37612 -9.4412 0.171336 -2.07464 27.5736 6.76305 16.395 50.6162 7.38229 -0.196057 1.88277 -4.76813 16.2463 1.77267 0.0795945 5.1414 1.24326 0.0341382 7.02152 -2.1328 18.1335 -13.906 14.909 -3.39864 0.444822 1.15854 -20.6255 4.25185 -6.23524 2.2321 -7.3156 -0.487352 17.4207 5.94507 -17.4222 -6.21581 -0.953296 3.66431 -13.5242 -8.20683 
226.779 97.6302 228.951 -1.93397 -5.39137 -30.5112 0 0 0 2.53845 2.38316 0.413989 -5.4955 10.9387 1.39021 10.8285 2.09698 -0.247504 -5.11387 -1.71445 4.23937 -33.1795 4.01295 -6.70352 -38.9115 19.6905 -15.4686 -4.37071 -13.3752 -4.06344 -9.85544 0.211945 -2.45788 27.4842 6.70173 16.2676 50.4625 8.01384 -0.321922 2.27239 -5.79269 16.3846 0.920859 0.0411153 5.11288 0.940635 -0.27365 6.78668 -1.87966 19.6638 -13.7186 15.3144 -3.88935 0.523101 1.21316 -21.5104 5.14296 -6.64639 1.516 -7.32619 -0.191657 19.7733 5.95706 -18.9119 -7.16532 -1.19492 3.76185 -14.0172 -8.26911 
226.676 97.4889 228.87 -1.86096 -5.6971 -30.6431 0 0 0 2.15435 3.04994 0.373906 -5.20006 10.6225 1.2712 11.6858 2.56099 -0.582381 -6.25942 -2.35316 4.43588 -33.2453 4.01764 -6.69824 -38.6627 20.1903 -15.504 -4.49777 -14.2379 -3.95441 -9.76209 0.257567 -3.01542 27.5149 6.79039 16.5071 50.4031 8.10374 -0.720568 2.31102 -5.92563 16.7235 0.719921 0.0300354 4.77798 0.782061 -0.336171 6.69219 -1.82481 20.3864 -13.7089 14.893 -4.1818 0.546811 1.24965 -21.6734 4.80906 -6.83348 1.04589 -6.76413 -0.207773 21.2701 5.26705 -18.7204 -8.44347 -1.39423 3.6131 -13.2814 -7.64876 
226.432 97.4283 228.788 -1.66856 -5.71379 -30.9627 0 0 0 2.50056 3.20961 0.449 -5.97574 10.5029 1.53661 11.6871 2.61052 -0.634601 -5.91455 -2.32081 4.32051 -32.5977 4.02129 -6.87855 -39.0855 20.4104 -15.1791 -4.52006 -13.9777 -4.40885 -9.77121 0.275008 -3.21649 27.9059 6.79501 16.3011 50.4762 7.09771 -1.22015 1.64439 -4.29674 17.374 1.06325 0.0452157 4.87002 0.974538 -0.512797 7.11203 -2.12417 20.78 -13.3519 14.8029 -4.63284 0.602144 1.21323 -21.3435 4.75597 -6.99004 0.401409 -6.54246 -0.131111 22.4883 5.39762 -18.5448 -8.95818 -1.46543 3.69737 -13.6953 -7.79418 
226.269 97.3139 228.714 -1.33994 -5.78612 -31.5244 0 0 0 2.50887 3.84971 0.415517 -6.15556 9.78443 1.51121 11.3629 2.62252 -0.407913 -6.08477 -1.89595 4.49589 -32.8884 3.9402 -6.59428 -38.8119 20.9882 -14.7406 -4.69488 -14.4851 -4.62586 -10.3546 0.355891 -3.92628 27.3426 6.72847 16.4251 51.5169 0.575786 -2.13578 -0.80569 1.41546 19.1949 3.22715 0.104496 3.70824 0.702232 -0.685261 7.11164 -2.16641 21.0444 -12.8548 14.1922 -5.12916 0.638938 1.19121 -21.0775 4.58571 -7.20981 -0.454324 -5.37243 -0.0797918 23.8717 4.42495 -18.5444 -9.90742 -1.6214 3.56978 -13.0707 -7.57123 
226.027 97.1926 228.518 -0.758055 -5.49212 -32.1893 0 0 0 2.45329 3.42384 0.591972 -6.84242 9.99828 1.83404 11.4243 2.49304 -0.138934 -6.11265 -2.25078 4.75908 -32.3967 3.92974 -6.69616 -39.1808 20.7638 -14.7414 -4.60098 -14.2205 -4.53925 -10.7204 0.383682 -4.08754 27.3421 6.6698 16.2546 51.6832 1.70148 -1.38822 -0.391818 0.48377 18.1337 2.26505 0.080305 4.06049 0.486697 -1.46311 7.0391 -2.07882 21.4552 -11.8005 14.2959 -5.25774 0.659812 1.30296 -21.7078 3.81025 -7.21535 -1.9511 -3.76435 -0.00167495 25.405 3.29338 -18.9749 -10.354 -1.73493 3.74171 -13.9145 -7.26529 
225.716 97.0597 228.198 -0.323767 -5.14271 -33.0145 0 0 0 2.04172 3.73841 0.795408 -6.66503 9.44336 1.98323 11.4401 2.20042 -0.00181802 -5.98285 -2.07136 4.85237 -32.5693 3.92565 -6.64017 -39.4511 19.9629 -14.4648 -4.30347 -13.2478 -4.25537 -11.0442 0.414254 -4.28289 27.1992 6.74177 16.5454 52.0168 1.22379 -1.58562 -0.125745 -0.368576 17.9206 1.64429 0.068835 4.79402 0.657603 -2.1075 7.41609 -2.41833 21.608 -11.4471 14.1416 -4.85377 0.602413 1.34 -22.4638 4.90588 -6.6905 -3.72129 -0.906465 -1.40889e-008 27.471 1.24173 -18.1079 -11.5336 -1.84395 3.48778 -12.6636 -7.63155 
225.174 97.0178 227.794 0.171428 -4.82587 -33.6017 0 0 0 -0.0348806 4.01376 0.798085 -4.45762 9.00273 1.38687 10.2941 1.35262 0.801729 -5.50259 -1.40196 5.13325 -33.641 3.84691 -6.16875 -39.1575 18.7107 -14.1074 -4.10184 -13.1226 -4.13744 -11.5511 0.454011 -4.48644 26.4452 6.54682 16.403 51.9578 3.61889 -0.72937 0.203721 -0.771403 16.9342 2.74739 0.111714 4.65608 1.21928 -2.55556 8.09013 -2.92964 21.5127 -11.1744 13.5645 -5.16426 0.614587 1.29775 -21.4258 3.315 -6.39611 -5.35458 -0.249334 -1.46575e-008 29.2977 1.00306 -18.2183 -11.7459 -1.88976 3.4812 -12.6186 -7.84426 
224.616 96.9103 227.227 0.64212 -4.29669 -34.2912 0 0 0 -0.672794 4.21089 0.936042 -4.74589 8.6458 1.60585 12.045 0.70947 0.602877 -6.42839 -1.8038 5.59044 -32.4064 3.91798 -6.66318 -39.4063 20.6172 -13.1858 -4.70258 -15.8003 -6.04748 -11.139 0.390239 -4.00029 27.2867 6.47965 15.7311 51.4639 5.18764 0.177945 0.563142 -1.37734 16.4631 1.8077 0.0716975 4.5422 1.67845 -3.61948 8.31248 -2.83089 22.1011 -10.721 12.1167 -5.94845 0.631895 1.22384 -20.3877 2.75691 -5.59179 -6.94865 0.179471 -2.65957e-008 30.2894 0.610382 -22.8814 -9.74483 -1.97668 4.16591 -16.1887 -9.53929 
223.968 96.9303 226.458 1.26522 -3.3051 -34.2057 0 0 0 -1.51883 3.48869 0.639268 -4.29162 9.33261 1.32843 12.502 -0.647944 0.719986 -6.45285 -1.81329 5.70153 -31.6596 4.02682 -7.1499 -38.5708 21.1583 -13.9033 -4.64936 -15.7546 -5.49207 -11.1773 0.37934 -3.87524 27.5069 6.59345 15.9412 51.0753 7.70713 0.786683 1.83331 -4.67255 16.6242 1.13665 0.0494792 4.98493 2.74447 -4.89176 8.93678 -3.51906 21.769 -11.3016 12.6397 -5.12657 0.568149 1.26704 -21.101 3.25567 -5.21725 -9.29627 -1.73377 1.58934e-008 32.0479 1.2507 -22.7497 -9.73818 -1.96365 4.0765 -15.6355 -8.65965 
223.175 96.9615 225.532 1.26094 -1.92829 -34.1739 0 0 0 -4.71231 4.44428 0.405434 0.890875 8.15346 -0.208545 10.3068 -2.28986 2.18399 -5.06287 -1.32328 6.0665 -34.6788 3.89764 -6.04394 -35.0774 23.8611 -14.1867 -5.62807 -18.7097 -7.08048 -10.3102 0.285603 -3.16493 25.1708 6.28606 16.3564 52.5351 7.37942 0.570037 1.23568 -3.29283 18.285 0.806471 0.0330012 4.68645 4.79247 -6.78899 9.81629 -3.61197 22.876 -12.0565 11.307 -5.65331 0.560094 1.32663 -21.0927 2.15508 -4.23713 -11.238 -5.23598 4.8252e-010 33.1018 2.52765 -23.1122 -9.37262 -1.92054 3.94669 -14.9179 -7.58909 
